<svg xmlns="http://www.w3.org/2000/svg" viewBox="0 0 597 982" width="597" height="982">
	<style>
		tspan { white-space:pre }
		.shp0 { fill: #5629b6 } 
	</style>
	<g id="Layer_3">
		<path id="Layer" class="shp0" d="M328.71 499.18C422.71 361.54 511.21 215.75 589.59 65C500.47 165.44 395.3 311.76 298.88 455C247.88 381.44 186.81 302.63 116.82 228.73C186.14 356.73 221.19 427.12 269.13 499.53C123.22 719.39 4.41 919.8 4.41 919.8C30.56 889.65 56.31 859.17 81.67 828.35C107.03 797.53 131.98 766.39 156.53 734.92C181.08 703.46 205.21 671.67 228.94 639.58C252.66 607.49 275.96 575.09 298.84 542.39C339.35 598.25 391.93 661.57 475.74 756.6C475.74 756.6 423.41 642.82 328.71 499.18Z" />
	</g>
</svg>